<?xml version="1.0" encoding="UTF-8"?>
<svg id="katman_1" data-name="katman 1" xmlns="http://www.w3.org/2000/svg" viewBox="0 0 443.99 81.52">
  <defs>
    <style>
      .cls-1, .cls-2, .cls-3 {
        stroke-width: 0px;
      }

      .cls-2 {
        fill: #231f20;
      }

      .cls-2, .cls-3 {
        fill-rule: evenodd;
      }

      .cls-3 {
        fill: #006128;
      }
    </style>
  </defs>
  <path class="cls-2" d="m73.56,54.88c0,4.58,1.19,6.78,2.73,8.25,2.23,2.1,5.4,2.23,6.46,2.23,1.85,0,4.2-.31,6.46-2.32,2.51-2.23,2.89-5.99,2.89-9.38v-3.36c0-4.89,0-5.77.06-6.78.06-1.1.31-1.6,1.16-1.79.38-.06.56-.09.78-.09.13,0,.25-.06.25-.19,0-.19-.16-.25-.5-.25-.94,0-2.42.09-2.64.09-.19,0-1.91-.09-3.33-.09-.35,0-.5.06-.5.25,0,.12.13.19.25.19.28,0,.82.03,1.07.09,1.04.22,1.29.72,1.35,1.79.06,1,.06,1.88.06,6.78v3.92c0,3.23-.38,5.9-1.82,7.69-1.13,1.35-3.01,2.26-4.93,2.26-1.79,0-3.2-.28-4.74-1.73-1.35-1.29-2.35-3.23-2.35-7.75v-4.39c0-4.89,0-5.77.06-6.78.06-1.1.31-1.66,1.16-1.79.38-.06.56-.09.78-.09.13,0,.25-.06.25-.19,0-.19-.16-.25-.5-.25-.94,0-2.82.09-3.11.09s-2.2-.09-3.61-.09c-.35,0-.5.06-.5.25,0,.12.13.19.25.19.28,0,.82.03,1.07.09,1.04.22,1.29.72,1.35,1.79.06,1,.06,1.88.06,6.78v4.58Z"/>
  <path class="cls-2" d="m101.87,45.62c1,1.13,4.54,5.08,8.18,9,3.32,3.58,7.83,8.19,8.18,8.5,1.67,1.66,2.05,2.01,2.3,2.01.22,0,.28-.16.28-2.23l.06-18.39c0-1.88.13-2.57,1.16-2.79.38-.09.6-.09.75-.09.22,0,.35-.09.35-.22,0-.19-.22-.22-.56-.22-1.29,0-2.33.09-2.67.09s-1.86-.09-3.26-.09c-.38,0-.63.03-.63.22,0,.13.03.22.25.22.25,0,.97.03,1.53.16.97.25,1.19.94,1.22,2.98l.35,15.94c-1-1.04-4.42-4.86-7.52-8.19-4.82-5.18-9.49-10.23-9.96-10.76-.32-.31-.85-1-1.11-1s-.35.34-.35,1.57l-.03,17.98c0,2.86-.16,3.76-.94,3.98-.47.16-1.04.19-1.29.19-.16,0-.25.06-.25.19,0,.22.19.25.5.25,1.41,0,2.74-.09,3.02-.09s1.54.09,3.33.09c.38,0,.56-.06.56-.25,0-.13-.09-.19-.25-.19-.28,0-.97-.03-1.57-.19-.85-.25-1.16-1.07-1.22-3.64l-.41-15.03Z"/>
  <path class="cls-2" d="m133.77,50.3c0-4.89,0-5.77.06-6.78.06-1.1.31-1.63,1.16-1.79.38-.06.56-.09.78-.09.13,0,.25-.06.25-.19,0-.19-.16-.25-.5-.25-.94,0-2.92.09-3.07.09s-2.13-.09-3.17-.09c-.35,0-.5.06-.5.25,0,.12.13.19.25.19.22,0,.63.03.97.13.69.16,1,.69,1.07,1.76.06,1,.06,1.88.06,6.78v5.52c0,3.01,0,5.49-.16,6.81-.13.91-.28,1.6-.91,1.73-.28.06-.66.12-.94.12-.19,0-.25.09-.25.19,0,.19.16.25.5.25.94,0,2.92-.09,3.08-.09s2.13.09,3.86.09c.35,0,.5-.09.5-.25,0-.09-.06-.19-.25-.19-.28,0-.97-.06-1.41-.12-.94-.13-1.13-.82-1.22-1.73-.16-1.32-.16-3.8-.16-6.81v-5.52Z"/>
  <path class="cls-2" d="m145.73,45.03c-.47-1.22-.85-2.2-.85-2.6,0-.22.06-.47.41-.63.28-.13.85-.16,1.19-.16.22,0,.31-.06.31-.22s-.28-.22-.85-.22c-1.19,0-2.6.09-2.92.09-.38,0-2.17-.09-3.67-.09-.5,0-.82.03-.82.22,0,.13.06.22.25.22s.72,0,1.19.13c1.1.31,1.57.66,2.26,2.42l7.69,19.23c.6,1.51.75,1.95,1.13,1.95.31,0,.44-.5,1.32-2.38.72-1.54,2.13-4.93,4.05-9.51,1.6-3.86,3.17-7.62,3.51-8.5.85-2.13,1.32-2.67,1.73-2.95.6-.38,1.29-.38,1.51-.38.25,0,.38-.06.38-.22s-.19-.22-.53-.22c-.91,0-2.26.09-2.45.09-.38,0-1.82-.09-3.07-.09-.5,0-.69.06-.69.25,0,.16.16.19.35.19.35,0,.82,0,1.19.13.31.16.41.47.41.72,0,.28-.13.72-.28,1.19-.69,2.26-4.89,13.21-6.71,17.41l-6.02-16.06Z"/>
  <path class="cls-2" d="m168.22,55.82c0,3.01,0,5.49-.16,6.81-.13.91-.28,1.6-.91,1.73-.28.06-.66.12-.94.12-.19,0-.25.09-.25.19,0,.19.16.25.5.25.47,0,1.19-.06,1.82-.06.66-.03,1.19-.03,1.26-.03.47,0,1.22.03,2.45.09,1.22.03,2.95.09,5.3.09,1.22,0,1.48,0,1.69-.82.16-.66.41-2.79.41-3.04,0-.22,0-.47-.19-.47-.16,0-.22.13-.28.47-.22,1.29-.6,1.91-1.41,2.26-.82.34-2.2.34-3.01.34-3.08,0-3.55-.41-3.64-2.57-.03-.66,0-4.3,0-5.37v-2.76c0-.13.06-.22.22-.22.53,0,3.64.06,4.49.16,1.22.12,1.51.66,1.63,1.1.13.41.13.72.13,1.04,0,.16.06.28.22.28.22,0,.22-.34.22-.6,0-.22.06-1.38.13-2.01.09-1.04.25-1.57.25-1.76s-.06-.25-.16-.25c-.13,0-.25.16-.47.41-.28.31-.72.38-1.47.44-.72.06-4.58.06-4.99.06-.16,0-.19-.09-.19-.31v-8.66c0-.22.06-.31.19-.31.35,0,3.77.03,4.3.09,1.69.19,2.01.57,2.23,1.07.16.38.19.91.19,1.13,0,.25.06.41.25.41.13,0,.19-.19.22-.35.06-.38.13-1.76.16-2.07.09-.88.25-1.25.25-1.47,0-.16-.03-.28-.13-.28-.16,0-.28.12-.44.16-.25.06-.75.13-1.35.16-.72.03-6.97.03-7.19.03l-1.29-.06c-.69-.03-1.54-.03-2.26-.03-.35,0-.5.06-.5.25,0,.12.13.19.25.19.28,0,.82.03,1.07.09,1.04.22,1.29.72,1.35,1.79.06,1,.06,1.88.06,6.78v5.52Z"/>
  <path class="cls-2" d="m189.87,42.77c0-.19.09-.31.25-.38.31-.09,1.16-.19,2.1-.19,3.36,0,5.43,2.35,5.43,6.28,0,2.38-.82,4.08-1.91,4.83-.72.5-1.6.6-2.35.6-1.38,0-2.82-.22-3.29-.5-.16-.09-.22-.22-.22-.38v-10.26Zm-2.51,13.05c0,3.01,0,5.49-.16,6.81-.13.91-.28,1.6-.91,1.73-.28.06-.66.12-.94.12-.19,0-.25.09-.25.19,0,.19.16.25.5.25.94,0,2.92-.09,2.95-.09.16,0,2.13.09,3.86.09.35,0,.5-.09.5-.25,0-.09-.06-.19-.25-.19-.28,0-.97-.06-1.41-.12-.94-.13-1.13-.82-1.22-1.73-.16-1.32-.16-3.8-.16-6.81v-.75c0-.16.06-.25.22-.25l3.86.06c.19,0,.28.06.41.19.63.82,2.1,2.92,3.42,4.64,1.79,2.35,2.89,3.89,4.24,4.61.82.44,1.6.6,3.36.6h2.23c.56,0,.75-.06.75-.25,0-.09-.13-.19-.28-.19-.19,0-.63,0-1.22-.09-.78-.13-2.13-.47-3.83-2.26-1.82-1.94-3.95-4.74-6.53-8.03,2.82-2.6,3.8-4.93,3.8-7.25,0-2.17-1.38-3.7-2.17-4.27-1.66-1.19-3.77-1.38-5.74-1.38-.97,0-3.36.09-3.7.09-.16,0-2.13-.09-3.55-.09-.35,0-.5.06-.5.25,0,.12.13.19.25.19.28,0,.82.03,1.07.09,1.04.22,1.29.72,1.35,1.79.06,1,.06,1.88.06,6.78v5.52Z"/>
  <path class="cls-2" d="m213.22,65.36c1.69,0,3.39-.38,4.74-1.32,2.17-1.54,2.67-3.92,2.67-5.21,0-2.51-.88-4.46-4.58-7.37l-.88-.69c-3.01-2.35-3.83-3.48-3.83-5.27,0-2.29,1.69-3.64,3.86-3.64,2.89,0,3.73,1.32,3.92,1.66.19.35.38,1.19.41,1.57.03.25.06.41.25.41.16,0,.22-.22.22-.72,0-2.13.13-3.17.13-3.33s-.06-.22-.31-.22-.5-.03-1.1-.16c-.78-.19-1.69-.31-2.92-.31-3.98,0-6.5,2.29-6.5,5.65,0,2.13.75,4.08,4.08,6.81l1.41,1.16c2.7,2.23,3.61,3.48,3.61,5.65,0,2.01-1.47,4.17-4.49,4.17-2.1,0-4.17-.88-4.64-3.2-.09-.44-.09-.88-.09-1.16,0-.25-.03-.35-.22-.35-.16,0-.22.16-.25.5-.03.5-.16,1.76-.16,3.33,0,.85.03.97.47,1.19,1.29.63,2.73.85,4.21.85Z"/>
  <path class="cls-2" d="m231.54,50.3c0-4.89,0-5.77.06-6.78.06-1.1.31-1.63,1.16-1.79.38-.06.56-.09.78-.09.13,0,.25-.06.25-.19,0-.19-.16-.25-.5-.25-.94,0-2.92.09-3.07.09s-2.13-.09-3.17-.09c-.35,0-.5.06-.5.25,0,.12.13.19.25.19.22,0,.63.03.97.13.69.16,1,.69,1.07,1.76.06,1,.06,1.88.06,6.78v5.52c0,3.01,0,5.49-.16,6.81-.13.91-.28,1.6-.91,1.73-.28.06-.66.12-.94.12-.19,0-.25.09-.25.19,0,.19.16.25.5.25.94,0,2.92-.09,3.08-.09s2.13.09,3.86.09c.35,0,.5-.09.5-.25,0-.09-.06-.19-.25-.19-.28,0-.97-.06-1.41-.12-.94-.13-1.13-.82-1.22-1.73-.16-1.32-.16-3.8-.16-6.81v-5.52Z"/>
  <path class="cls-2" d="m249.4,42.55l3.95.06c3.01.06,3.76.78,3.85,1.73l.03.34c.03.44.1.53.26.53.13,0,.22-.12.22-.41,0-.35.1-2.51.1-3.45,0-.19,0-.38-.16-.38-.13,0-.42.09-.89.16-.5.09-1.22.16-2.22.16h-11.76c-.38,0-1.57-.06-2.48-.16-.85-.06-1.16-.38-1.38-.38-.13,0-.25.41-.31.6-.06.25-.69,2.95-.69,3.26,0,.19.06.28.16.28.13,0,.22-.06.31-.31.09-.22.19-.44.53-.97.5-.75,1.25-.97,3.2-1l4.64-.06v13.27c0,3.01,0,5.49-.16,6.81-.13.91-.28,1.6-.91,1.73-.28.06-.66.12-.94.12-.19,0-.25.09-.25.19,0,.19.16.25.5.25.94,0,2.92-.09,3.07-.09s2.13.09,3.85.09c.34,0,.5-.09.5-.25,0-.09-.06-.19-.25-.19-.28,0-.97-.06-1.41-.12-.94-.13-1.13-.82-1.22-1.73-.16-1.32-.16-3.8-.16-6.81v-13.27Z"/>
  <path class="cls-2" d="m74.63,21.05c0-3.2.53-5.99,2.82-8.19,1.1-1.07,3.04-2.29,7.22-2.29,2.76,0,5.18.85,6.28,1.79.82.69,1.32,1.98,1.32,3.2,0,.44.03.66.25.66.19,0,.25-.19.28-.66.03-.47.03-2.2.09-3.23.06-1.13.16-1.51.16-1.76,0-.19-.06-.31-.41-.34-1-.06-2.01-.25-3.2-.47-1.54-.28-3.29-.38-4.55-.38-4.83,0-7.69,1.47-9.57,3.36-2.79,2.79-3.51,6.46-3.51,8.57,0,2.98.75,6.56,3.8,9.29,1.78,1.59,4.31,2.91,7.58,3.29l-1.85,1.54c-.28.22-.41.34-.41.44,0,.13.13.19.47.28,1.85.53,2.26,1.38,2.26,2.29,0,1.13-1.22,1.79-2.32,1.91-.35.03-.63.06-.63.35,0,.16.19.25.41.25.6,0,1.6-.19,2.45-.57,1.07-.44,2.23-1.35,2.23-2.57,0-1.29-1.19-2.04-3.14-2.23.22-.22,1.22-1.19,1.76-1.63.22.03,1.3.03,1.55.03,2.01,0,4.39-.22,5.65-.72.56-.25.63-.31.82-.91.31-1.07.69-3.8.69-4.02,0-.25-.06-.47-.22-.47-.19,0-.25.12-.31.47-.09.56-.5,1.95-1.16,2.64-1.25,1.29-3.11,1.57-5.46,1.57-6.71,0-11.33-5.49-11.33-11.48Z"/>
  <path class="cls-2" d="m98.82,23.5c0,4.58,1.19,6.78,2.73,8.25,2.23,2.1,5.4,2.23,6.46,2.23,1.85,0,4.2-.31,6.46-2.32,2.51-2.23,2.89-5.99,2.89-9.38v-3.36c0-4.89,0-5.77.06-6.78.06-1.1.31-1.6,1.16-1.79.38-.06.56-.09.78-.09.13,0,.25-.06.25-.19,0-.19-.16-.25-.5-.25-.94,0-2.42.09-2.64.09-.19,0-1.91-.09-3.33-.09-.35,0-.5.06-.5.25,0,.12.13.19.25.19.28,0,.82.03,1.07.09,1.04.22,1.29.72,1.35,1.79.06,1,.06,1.88.06,6.78v3.92c0,3.23-.38,5.9-1.82,7.69-1.13,1.35-3.01,2.26-4.93,2.26-1.79,0-3.2-.28-4.74-1.73-1.35-1.29-2.35-3.23-2.35-7.75v-4.39c0-4.89,0-5.77.06-6.78.06-1.1.31-1.66,1.16-1.79.38-.06.56-.09.78-.09.13,0,.25-.06.25-.19,0-.19-.16-.25-.5-.25-.94,0-2.82.09-3.11.09s-2.2-.09-3.61-.09c-.35,0-.5.06-.5.25,0,.12.13.19.25.19.28,0,.82.03,1.07.09,1.04.22,1.29.72,1.35,1.79.06,1,.06,1.88.06,6.78v4.58Z"/>
  <path class="cls-2" d="m126.68,24.44c0,3.01,0,5.49-.16,6.81-.13.91-.28,1.6-.91,1.73-.28.06-.66.12-.94.12-.19,0-.25.09-.25.19,0,.19.16.25.5.25.94,0,2.76-.09,3.01-.09s2.07.09,3.61.09c.35,0,.5-.09.5-.25,0-.09-.06-.19-.25-.19-.28,0-.78-.06-1.22-.12-.94-.13-1.13-.82-1.22-1.73-.16-1.32-.16-3.8-.16-6.81v-3.07h.16c1.51,1.85,8.16,9.04,9.57,10.2,1.35,1.07,2.13,1.76,3.8,1.91.69.06,1.29.06,2.17.06h1.6c.53,0,.69-.09.69-.25,0-.13-.19-.19-.41-.19s-1.13-.06-1.95-.41c-1.51-.63-2.04-1.13-4.67-3.58-1.29-1.19-7.81-7.94-8.63-8.85.66-.79,6.12-6.12,6.9-6.87,1.41-1.35,2.1-2.13,3.39-2.7.63-.28,1.29-.44,1.76-.44.25,0,.31-.06.31-.22s-.13-.22-.47-.22c-.78,0-2.86.09-3.01.09-.75,0-1.73-.09-2.35-.09-.22,0-.38.06-.38.22,0,.13.13.19.28.25.25.09.41.28.41.66,0,.53-.82,1.35-1.69,2.26-1.13,1.22-6.81,7-7.34,7.59h-.13v-1.88c0-4.89,0-5.77.06-6.78.06-1.1.31-1.63,1.16-1.79.38-.06.56-.09.78-.09.13,0,.25-.06.25-.19,0-.19-.16-.25-.5-.25-.94,0-2.76.09-3.04.09-.19,0-2.04-.09-3.45-.09-.34,0-.5.06-.5.25,0,.12.13.19.25.19.28,0,.82.03,1.07.09,1.04.22,1.29.72,1.35,1.79.06,1,.06,1.88.06,6.78v5.52Z"/>
  <path class="cls-2" d="m148.24,23.5c0,4.58,1.19,6.78,2.73,8.25,2.23,2.1,5.4,2.23,6.46,2.23,1.85,0,4.2-.31,6.46-2.32,2.51-2.23,2.89-5.99,2.89-9.38v-3.36c0-4.89,0-5.77.06-6.78.06-1.1.31-1.6,1.16-1.79.38-.06.56-.09.78-.09.13,0,.25-.06.25-.19,0-.19-.16-.25-.5-.25-.94,0-2.42.09-2.64.09-.19,0-1.91-.09-3.33-.09-.35,0-.5.06-.5.25,0,.12.13.19.25.19.28,0,.82.03,1.07.09,1.04.22,1.29.72,1.35,1.79.06,1,.06,1.88.06,6.78v3.92c0,3.23-.38,5.9-1.82,7.69-1.13,1.35-3.01,2.26-4.93,2.26-1.79,0-3.2-.28-4.74-1.73-1.35-1.29-2.35-3.23-2.35-7.75v-4.39c0-4.89,0-5.77.06-6.78.06-1.1.31-1.66,1.16-1.79.38-.06.56-.09.78-.09.13,0,.25-.06.25-.19,0-.19-.16-.25-.5-.25-.94,0-2.82.09-3.11.09s-2.2-.09-3.61-.09c-.35,0-.5.06-.5.25,0,.12.13.19.25.19.28,0,.82.03,1.07.09,1.04.22,1.29.72,1.35,1.79.06,1,.06,1.88.06,6.78v4.58Z"/>
  <path class="cls-2" d="m178.61,11.39c0-.19.09-.31.25-.38.31-.09,1.16-.19,2.1-.19,3.36,0,5.43,2.35,5.43,6.28,0,2.38-.82,4.08-1.91,4.83-.72.5-1.6.6-2.35.6-1.38,0-2.82-.22-3.29-.5-.16-.09-.22-.22-.22-.38v-10.26Zm-2.51,13.05c0,3.01,0,5.49-.16,6.81-.13.91-.28,1.6-.91,1.73-.28.06-.66.12-.94.12-.19,0-.25.09-.25.19,0,.19.16.25.5.25.94,0,2.92-.09,2.95-.09.16,0,2.13.09,3.86.09.35,0,.5-.09.5-.25,0-.09-.06-.19-.25-.19-.28,0-.97-.06-1.41-.12-.94-.13-1.13-.82-1.22-1.73-.16-1.32-.16-3.8-.16-6.81v-.75c0-.16.06-.25.22-.25l3.86.06c.19,0,.28.06.41.19.63.82,2.1,2.92,3.42,4.64,1.79,2.35,2.89,3.89,4.24,4.61.82.44,1.6.6,3.36.6h2.23c.56,0,.75-.06.75-.25,0-.09-.13-.19-.28-.19-.19,0-.63,0-1.22-.09-.78-.12-2.13-.47-3.83-2.26-1.82-1.95-3.95-4.74-6.53-8.03,2.82-2.6,3.8-4.93,3.8-7.25,0-2.17-1.38-3.7-2.17-4.27-1.66-1.19-3.77-1.38-5.74-1.38-.97,0-3.36.09-3.7.09-.16,0-2.13-.09-3.55-.09-.35,0-.5.06-.5.25,0,.12.12.19.25.19.28,0,.82.03,1.07.09,1.04.22,1.29.72,1.35,1.79.06,1,.06,1.88.06,6.78v5.52Z"/>
  <path class="cls-2" d="m199.32,20.77c0-6.87,3.92-10.32,9.16-10.32,4.96,0,9.54,4.05,9.54,11.58,0,9.13-5.84,10.76-8.66,10.76-5.65,0-10.04-4.71-10.04-12.02Zm-2.98.88c0,5.65,3.58,12.33,12.17,12.33,7.56,0,12.52-5.8,12.52-12.83s-5.27-11.77-12.33-11.77c-8.66,0-12.36,7.19-12.36,12.27Z"/>
  <path class="cls-2" d="m229.41,13.65c-.47-1.22-.85-2.2-.85-2.6,0-.22.06-.47.41-.63.28-.13.85-.16,1.19-.16.22,0,.31-.06.31-.22s-.28-.22-.85-.22c-1.19,0-2.6.09-2.92.09-.38,0-2.17-.09-3.67-.09-.5,0-.82.03-.82.22,0,.13.06.22.25.22s.72,0,1.19.13c1.1.31,1.57.66,2.26,2.42l7.69,19.23c.6,1.51.75,1.95,1.13,1.95.31,0,.44-.5,1.32-2.38.72-1.54,2.13-4.93,4.05-9.51,1.6-3.86,3.17-7.62,3.51-8.5.85-2.13,1.32-2.67,1.73-2.95.6-.38,1.29-.38,1.51-.38.25,0,.38-.06.38-.22s-.19-.22-.53-.22c-.91,0-2.26.09-2.45.09-.38,0-1.82-.09-3.07-.09-.5,0-.69.06-.69.25,0,.16.16.19.35.19.35,0,.82,0,1.19.13.31.16.41.47.41.72,0,.28-.13.72-.28,1.19-.69,2.26-4.89,13.21-6.71,17.41l-6.02-16.07Z"/>
  <path class="cls-2" d="m252.31,23.16c-.09,0-.16-.06-.09-.22l2.76-8.47c.16-.47.31-.47.47,0l2.98,8.47c.03.13.03.22-.13.22h-5.99Zm-4.39,6.93c-.56,1.57-1.19,2.76-2.64,2.95-.25.03-.69.06-.91.06-.16,0-.28.06-.28.19,0,.19.19.25.6.25,1.47,0,3.2-.09,3.55-.09s1.69.09,2.45.09c.28,0,.47-.06.47-.25,0-.13-.09-.19-.31-.19h-.31c-.53,0-1.19-.28-1.19-.91,0-.56.16-1.32.44-2.1l1.88-5.55c.06-.16.16-.25.31-.25h6.75c.16,0,.22.06.28.19l2.92,7.72c.19.5,0,.79-.19.85-.13.03-.22.09-.22.22,0,.19.35.19.94.22,2.17.06,4.46.06,4.93.06.35,0,.63-.06.63-.25,0-.16-.13-.19-.31-.19-.31,0-.78-.03-1.26-.19-.66-.19-1.57-.69-2.7-3.48-1.91-4.77-6.84-17.73-7.31-18.92-.38-.97-.5-1.13-.69-1.13s-.31.19-.69,1.22l-7.12,19.49Z"/>
  <path class="cls-3" d="m21.17,36.12c-.03.31-.04.62-.04.93,0,5.87,4.76,10.63,10.63,10.63s10.63-4.76,10.63-10.63c0-.31-.01-.62-.04-.93h9.35c.01.31.02.62.02.93,0,9.12-6.11,16.81-14.46,19.2-.81-2.26-2.97-3.88-5.51-3.88s-4.7,1.62-5.51,3.88c-8.35-2.39-14.46-10.08-14.46-19.2,0-.31,0-.62.02-.93h9.35Zm10.59-21.5c-12.39,0-22.43,10.04-22.43,22.43,0,10.37,7.04,19.1,16.61,21.67.25,3,2.76,5.35,5.83,5.35s5.57-2.35,5.83-5.35c9.57-2.56,16.61-11.29,16.61-21.67,0-.31,0-.62-.02-.93h9.34c0,.31.01.62.01.93,0,17.54-14.22,31.77-31.77,31.77S0,54.6,0,37.05,14.22,5.29,31.77,5.29c14.61,0,26.92,9.86,30.62,23.29h-9.85c-3.34-8.19-11.39-13.96-20.78-13.96Zm-10.6,5.51h9.37v15.99h-9.37v-15.99Zm11.84,0h9.37v15.99h-9.37v-15.99Z"/>
  <g>
    <path class="cls-1" d="m323.87,17.53c1.42-.22,2.67-.24,3.74-.06,1.07.18,1.97.51,2.71.98.74.47,1.32,1.06,1.73,1.77.41.71.68,1.47.81,2.3.11.71.12,1.44.05,2.18-.08.74-.24,1.46-.47,2.15-.24.7-.54,1.36-.92,1.99-.38.64-.82,1.22-1.33,1.74.38.63.63,1.4.74,2.31.11.91.17,1.87.18,2.87.01,1,.01,1.98,0,2.95-.01.96.05,1.82.2,2.56.15.75.41,1.32.78,1.73.38.41.96.55,1.75.43.18-.03.33.02.46.16.13.13.21.28.23.44.02.14,0,.26-.08.38-.07.11-.22.19-.44.22-.77.12-1.44.09-2-.07s-1.04-.44-1.43-.81c-.39-.38-.7-.83-.92-1.36-.22-.53-.38-1.11-.48-1.72-.13-.87-.23-1.72-.29-2.55s-.11-1.61-.15-2.35c-.04-.73-.09-1.42-.15-2.06-.06-.64-.15-1.19-.29-1.66-.77.49-1.63.81-2.58.96-.77.12-1.3.06-1.59-.19s-.46-.55-.52-.9c-.09-.57.12-1.12.62-1.66.5-.54,1.22-.88,2.15-1.02.49-.08.94-.09,1.33-.05.39.04.74.12,1.04.24.33-.48.63-.99.89-1.54.26-.55.47-1.11.62-1.69.15-.58.25-1.17.3-1.77.05-.6.03-1.16-.05-1.7-.1-.65-.33-1.25-.7-1.79-.37-.54-.85-1-1.45-1.36-.6-.36-1.31-.62-2.14-.77-.82-.15-1.73-.15-2.72,0-1.74.27-3.19.86-4.35,1.78-1.16.92-2.04,2.03-2.63,3.35-.59,1.31-.89,2.76-.91,4.34-.02,1.58.26,3.16.85,4.73.14.36.11.67-.07.92-.18.25-.42.4-.72.46-.3.06-.61,0-.94-.17-.33-.17-.57-.51-.73-1.01-.58-1.77-.76-3.53-.54-5.26.22-1.73.77-3.32,1.65-4.76.88-1.44,2.06-2.67,3.55-3.67s3.21-1.66,5.19-1.97Zm2.26,2.84c.26-.04.45,0,.58.12.13.12.21.25.23.41.02.13,0,.27-.08.4-.07.13-.18.21-.34.23-.51.08-.94.39-1.28.93-.34.54-.64,1.22-.9,2.04-.26.82-.48,1.74-.67,2.76-.19,1.02-.37,2.07-.56,3.14-.19,1.07-.4,2.12-.62,3.15-.23,1.03-.49,1.95-.8,2.78-.31.83-.68,1.51-1.12,2.06-.44.54-.97.86-1.58.96-.26.04-.46-.01-.61-.15-.15-.14-.24-.29-.27-.44-.05-.32.07-.5.37-.54l.21-.03c.3-.05.54-.32.72-.82s.35-1.16.5-1.96c.15-.8.29-1.71.41-2.73.13-1.02.28-2.06.46-3.13.18-1.07.4-2.12.67-3.16s.61-1.98,1.02-2.82c.42-.84.92-1.55,1.51-2.11.59-.57,1.31-.91,2.16-1.05Zm-.9,11.49c.42-.06.82-.2,1.21-.39.39-.2.77-.44,1.13-.74-.36-.26-.8-.35-1.32-.27-.61.09-1.03.25-1.25.48-.22.22-.32.42-.29.59.04.27.21.38.51.34Z"/>
    <path class="cls-1" d="m334.24,33.17c-.14-.93-.09-1.92.15-2.98.24-1.06.62-2.05,1.14-2.97.52-.92,1.15-1.71,1.9-2.37.75-.66,1.56-1.06,2.43-1.19.71-.11,1.23,0,1.57.35.33.34.54.77.62,1.29.1.63.02,1.36-.23,2.17-.25.82-.61,1.6-1.08,2.35-.47.75-1.03,1.4-1.67,1.96-.64.55-1.31.89-2,.99-.12.02-.23.04-.34.05-.11.02-.21.01-.32-.01,0,.35,0,.64.04.87.11.69.37,1.16.79,1.41.42.25.98.32,1.67.21.55-.09,1.09-.33,1.62-.74.52-.4,1.01-.88,1.45-1.44.44-.55.83-1.13,1.16-1.74.33-.61.6-1.15.81-1.63.11-.24.27-.38.48-.41.16-.02.3,0,.44.08.13.08.21.21.24.39.02.12,0,.25-.06.4-.16.43-.4.97-.72,1.63s-.74,1.31-1.24,1.97c-.51.66-1.1,1.24-1.79,1.76-.69.52-1.48.85-2.37.99-1.21.19-2.24-.02-3.1-.62-.86-.6-1.39-1.53-1.58-2.79Zm5.94-8.35c-.42.06-.82.32-1.22.78-.4.46-.76,1.01-1.09,1.67-.33.66-.62,1.38-.87,2.15-.25.78-.42,1.52-.51,2.22l.27-.04c.59-.09,1.15-.38,1.67-.88.52-.49.97-1.07,1.36-1.71.39-.65.68-1.29.87-1.94.19-.65.26-1.18.19-1.59-.03-.22-.09-.39-.17-.52-.08-.13-.25-.17-.51-.14Z"/>
    <path class="cls-1" d="m346.72,21.96c-.39-.14-.57-.36-.54-.65.03-.29.27-.47.72-.54.55-.09,1.16,0,1.83.25.67.25,1.31.65,1.93,1.19.62.54,1.16,1.22,1.63,2.04.47.82.79,1.76.95,2.83.13.87.11,1.75-.08,2.64-.19.89-.5,1.72-.95,2.48-.45.77-1.02,1.42-1.7,1.95-.69.53-1.46.86-2.31.99-.95.15-1.7.1-2.25-.14-.55-.24-.96-.55-1.22-.93-.26-.38-.41-.78-.44-1.18-.03-.4,0-.7.12-.9.08-.13.2-.24.36-.33.16-.08.31-.13.45-.13.14,0,.25.05.33.16.08.11.09.29.02.54-.09.32-.09.59,0,.83.1.24.25.43.45.58.21.15.45.25.73.3.28.05.57.05.87,0,.49-.08.96-.3,1.41-.67s.83-.86,1.14-1.45c.31-.6.54-1.27.67-2.03.14-.76.14-1.57,0-2.44-.09-.59-.23-1.12-.41-1.59-.18-.47-.4-.88-.63-1.25-.24-.37-.49-.69-.75-.96-.26-.27-.52-.51-.78-.71l-3.23,7.39c-.09.2-.21.32-.35.36-.15.04-.29.03-.43-.02-.14-.06-.25-.16-.32-.31-.07-.15-.07-.31,0-.49.05-.09.14-.31.29-.65.15-.35.33-.76.55-1.25.22-.49.46-1.02.71-1.58.26-.57.51-1.11.75-1.63.24-.52.46-1,.64-1.44.19-.43.33-.76.44-.98-.13-.08-.25-.14-.36-.17-.11-.03-.19-.07-.26-.1Z"/>
    <path class="cls-1" d="m354.43,30.06c-.14-.93-.09-1.92.15-2.98.24-1.06.62-2.05,1.14-2.97.52-.92,1.15-1.71,1.9-2.37.75-.66,1.56-1.06,2.43-1.19.71-.11,1.24,0,1.57.35.34.34.54.77.62,1.29.1.63.02,1.36-.23,2.17-.25.82-.61,1.6-1.08,2.35-.47.75-1.03,1.4-1.67,1.96-.64.55-1.31.89-2,.99-.12.02-.23.04-.34.05-.11.02-.21.01-.32-.01,0,.35,0,.64.04.87.11.69.37,1.16.79,1.41.42.25.98.32,1.67.21.55-.09,1.09-.33,1.62-.74.52-.4,1.01-.88,1.45-1.44.44-.55.83-1.13,1.16-1.74.33-.61.6-1.15.81-1.63.1-.24.27-.38.48-.41.16-.02.3,0,.44.08.13.08.21.21.24.39.02.12,0,.25-.06.4-.16.43-.4.97-.72,1.63-.32.66-.74,1.31-1.24,1.97-.51.66-1.1,1.24-1.79,1.76-.69.52-1.48.85-2.37.99-1.21.19-2.24-.02-3.1-.62-.86-.59-1.39-1.53-1.58-2.79Zm5.94-8.35c-.41.06-.82.32-1.22.78-.4.46-.76,1.01-1.09,1.67-.33.66-.62,1.38-.87,2.15-.24.78-.41,1.52-.51,2.22l.27-.04c.59-.09,1.15-.38,1.67-.88.52-.49.97-1.07,1.36-1.71.39-.65.68-1.29.87-1.94.19-.65.26-1.18.2-1.59-.03-.22-.09-.39-.17-.52-.08-.13-.25-.17-.51-.14Z"/>
    <path class="cls-1" d="m373.91,31.18c-.61.09-1.13-.08-1.57-.52-.43-.44-.72-1.12-.86-2.05-.02-.16-.05-.34-.07-.54-.02-.2-.04-.41-.05-.63-.25.61-.53,1.19-.84,1.74-.31.55-.63,1.04-.97,1.47-.34.43-.71.78-1.1,1.05-.39.27-.81.44-1.24.51-.83.13-1.51-.1-2.03-.69-.53-.59-.87-1.43-1.04-2.54-.16-1.03-.11-2.1.16-3.23.26-1.12.68-2.16,1.26-3.12.58-.96,1.3-1.78,2.17-2.46.87-.68,1.83-1.1,2.9-1.27.61-.09,1.12-.09,1.54.02s.74.27.98.47c.24.21.42.42.52.63.1.22.17.38.18.5.02.16,0,.29-.09.39-.09.1-.2.18-.33.22.37.15.58.4.63.75,0,.06.02.12.03.19.01.07,0,.14-.03.2-.09.44-.21.95-.34,1.54-.13.59-.26,1.18-.38,1.79-.12.61-.21,1.2-.27,1.77-.06.58-.06,1.08,0,1.52.12.77.34,1.13.65,1.08.36-.05.73-.33,1.12-.82.39-.49.76-1.05,1.11-1.67.35-.62.65-1.21.91-1.76.26-.56.42-.93.49-1.12.1-.24.27-.38.48-.41.16-.02.3,0,.44.08.13.08.21.21.24.39.02.12,0,.25-.06.4-.1.26-.3.71-.58,1.35-.29.64-.64,1.3-1.06,1.97-.42.67-.88,1.28-1.39,1.84-.5.55-1.01.87-1.52.95Zm-2.27-9c0-.34.11-.61.32-.79.2-.18.43-.3.69-.34.1-.02.18-.02.24,0-.11-.08-.21-.19-.29-.32-.08-.13-.18-.25-.3-.38-.12-.12-.26-.22-.42-.28-.16-.07-.37-.08-.63-.04-.81.12-1.55.57-2.22,1.33-.67.76-1.24,1.66-1.7,2.69-.46,1.03-.79,2.09-1,3.17-.21,1.08-.25,2.01-.13,2.78.07.47.22.77.44.87.22.11.41.15.57.13.46-.07.92-.41,1.39-1.03.47-.62.91-1.35,1.31-2.21.4-.85.76-1.74,1.06-2.65s.51-1.7.61-2.34l.06-.59Z"/>
    <path class="cls-1" d="m378.13,18.6c.04-.27.16-.49.35-.68.2-.18.42-.29.68-.33.36-.05.66.03.9.24.25.22.39.47.44.77,0,.06.02.15.03.27,0,.12,0,.18-.05.19l-.63,2.62c.33-.62.69-1.21,1.08-1.77.39-.57.8-1.07,1.24-1.53.44-.45.9-.83,1.39-1.12.49-.3,1-.49,1.54-.57.77-.12,1.36-.01,1.76.32.4.33.66.79.76,1.37.1.58.07,1.23-.08,1.94-.15.71-.39,1.39-.72,2.04s-.71,1.2-1.15,1.67c-.44.46-.91.73-1.41.81s-.86.03-1.1-.15c-.24-.18-.38-.38-.41-.62-.04-.24.01-.47.15-.69s.34-.36.62-.4c.32-.05.64-.22.97-.51.33-.29.63-.64.92-1.04.28-.4.52-.82.72-1.26.19-.44.3-.85.33-1.2.03-.36-.05-.65-.22-.86-.17-.21-.49-.29-.94-.22-.67.1-1.32.46-1.93,1.06-.62.6-1.19,1.33-1.71,2.19-.52.86-1,1.78-1.44,2.77s-.82,1.92-1.15,2.8c-.33.88-.6,1.65-.8,2.29-.2.65-.34,1.06-.42,1.23-.06.25-.22.4-.48.44h-.09c-.16.04-.3.01-.42-.06s-.2-.19-.22-.35c-.01-.08-.01-.14,0-.18,0-.02,0-.04,0-.05,0-.01.01-.03,0-.05l1.5-11.37Z"/>
    <path class="cls-1" d="m393.21,28.21c-1.3.2-2.37-.03-3.19-.69-.82-.66-1.32-1.56-1.49-2.68-.14-.93-.09-1.92.15-2.98.24-1.06.62-2.05,1.13-2.98.51-.93,1.15-1.73,1.89-2.39.75-.66,1.56-1.06,2.43-1.19.71-.11,1.23,0,1.57.34.33.34.54.76.62,1.27.03.22,0,.39-.1.53s-.23.22-.39.24c-.24.04-.4-.01-.48-.15-.08-.14-.15-.29-.21-.46-.06-.17-.13-.32-.21-.46-.08-.14-.24-.19-.48-.15-.36.05-.7.25-1.03.58-.33.34-.65.76-.96,1.27-.31.51-.58,1.09-.81,1.72-.24.63-.44,1.27-.6,1.91-.16.64-.28,1.26-.34,1.86-.06.6-.06,1.11.01,1.55.11.71.4,1.18.87,1.4.47.22,1,.29,1.59.2.55-.09,1.09-.33,1.62-.74.52-.4,1.01-.88,1.45-1.44.44-.55.83-1.13,1.16-1.74.33-.61.6-1.15.81-1.63.1-.24.27-.38.48-.41.16-.02.3,0,.44.08.13.08.21.21.24.39.02.12,0,.25-.06.4-.16.43-.4.97-.72,1.63s-.74,1.31-1.25,1.97c-.51.66-1.1,1.24-1.79,1.76-.69.52-1.48.85-2.37.99Z"/>
    <path class="cls-1" d="m406.05,14.66c-.49.08-1.01.38-1.54.92s-1.06,1.2-1.58,1.99c-.52.79-1.01,1.64-1.47,2.55-.47.91-.89,1.78-1.27,2.61s-.69,1.56-.95,2.21-.43,1.08-.51,1.29l-.16.75c-.03.17-.12.3-.26.39-.14.09-.29.12-.46.09-.17-.03-.29-.12-.37-.25s-.11-.28-.1-.44l3.1-20.09c.05-.33.21-.59.49-.79.27-.19.58-.27.91-.22.33.05.59.21.77.49.18.27.25.58.2.91,0,.04,0,.06-.02.06l-2.76,12.81c.39-.75.81-1.5,1.25-2.24.44-.75.9-1.41,1.39-2.01.49-.59,1-1.09,1.53-1.5.53-.41,1.08-.65,1.63-.74.6-.09,1.05,0,1.34.26.29.27.47.66.55,1.17.1.67.06,1.49-.12,2.45s-.4,1.91-.66,2.86c-.25.95-.48,1.83-.69,2.64-.21.81-.28,1.39-.23,1.75.04.26.17.37.38.33.36-.06.73-.33,1.12-.82.39-.5.76-1.05,1.11-1.67.35-.62.65-1.21.91-1.76.26-.56.42-.93.49-1.12.1-.24.27-.37.48-.41.16-.02.3,0,.44.08.13.08.21.21.24.39.02.12,0,.25-.06.4-.1.26-.3.71-.58,1.35-.29.64-.64,1.3-1.06,1.97-.42.67-.88,1.29-1.39,1.84-.5.55-1.01.87-1.52.95-.71.11-1.27,0-1.66-.35s-.64-.8-.73-1.38c-.13-.87-.1-1.82.11-2.84.21-1.02.46-2,.75-2.92.29-.93.57-1.74.82-2.43.26-.7.37-1.16.33-1.4-.02-.12-.09-.17-.21-.15Z"/>
  </g>
  <g>
    <path class="cls-1" d="m333.68,54.65c-.14-.91-.06-1.81.25-2.69s.78-1.74,1.41-2.57c.63-.83,1.38-1.61,2.25-2.34.87-.73,1.8-1.38,2.78-1.94.99-.56,1.99-1.04,3.01-1.42,1.02-.38,2.01-.65,2.96-.8.04,0,.06,0,.08,0,.01,0,.04,0,.08,0,.2-.13.42-.19.66-.16.24.02.46.11.66.25s.36.33.47.58c.11.25.12.51.04.78-.06.23-.18.71-.34,1.42-.16.71-.35,1.56-.56,2.56-.21.99-.43,2.07-.65,3.24-.23,1.17-.42,2.32-.57,3.47-.16,1.15-.27,2.22-.34,3.22-.07,1-.05,1.83.05,2.48.03.18.08.37.16.57.08.2.2.38.34.54.15.16.34.28.57.35.23.08.52.09.86.04.81-.12,1.58-.51,2.33-1.16.74-.65,1.43-1.46,2.07-2.43-.07-1.14-.09-2.32-.04-3.54.04-1.22.14-2.42.3-3.58.15-1.17.35-2.27.58-3.31.23-1.04.51-1.96.82-2.77s.65-1.46,1.01-1.95c.36-.49.74-.77,1.13-.83.51-.08.93.06,1.25.42.32.36.51.77.59,1.25.12.75.11,1.64-.02,2.66-.12,1.02-.34,2.1-.65,3.24-.31,1.14-.7,2.31-1.17,3.52-.47,1.21-1,2.35-1.58,3.43.02,1.17.08,2.28.19,3.32.11,1.05.28,1.96.5,2.73s.51,1.38.86,1.81c.35.43.77.61,1.27.53.22-.03.4,0,.53.12.14.11.22.24.24.39.02.15-.02.29-.13.43-.11.14-.31.23-.61.28-.71.11-1.34.02-1.89-.27-.55-.29-1.02-.73-1.42-1.31-.39-.59-.72-1.29-.98-2.13-.26-.83-.46-1.74-.59-2.73-.64.83-1.31,1.52-2.02,2.06-.71.54-1.4.87-2.1.97-.55.09-1.05.1-1.48.03-.44-.06-.82-.23-1.14-.49-.33-.26-.6-.65-.82-1.15s-.39-1.16-.52-1.97c-.08-.49-.1-1.16-.08-1.99s.08-1.74.16-2.73.19-2.01.31-3.08c.13-1.07.26-2.1.4-3.1.14-.99.28-1.9.42-2.72.14-.82.25-1.48.33-1.98-1.27.3-2.53.79-3.78,1.48s-2.35,1.48-3.31,2.38c-.95.9-1.7,1.85-2.23,2.86-.53,1.01-.72,1.99-.58,2.94.08.53.02.94-.19,1.21-.21.28-.46.44-.76.5-.29.06-.58,0-.86-.14-.28-.15-.44-.4-.5-.76Zm22.59-10.77c-.2.03-.4.35-.6.96-.2.61-.38,1.4-.54,2.38s-.31,2.09-.43,3.33c-.12,1.24-.2,2.51-.25,3.82.54-1.25.99-2.52,1.36-3.79.37-1.27.64-2.41.81-3.42.17-1.01.23-1.81.17-2.42-.05-.61-.23-.89-.52-.84Z"/>
    <path class="cls-1" d="m366.09,49.29c-.47.07-.97.36-1.49.87-.52.51-1.03,1.13-1.52,1.87-.49.74-.97,1.56-1.43,2.44s-.88,1.73-1.26,2.55c-.38.82-.71,1.56-.98,2.23-.27.67-.46,1.15-.58,1.46l-.22.92c-.02.14-.08.25-.18.33-.1.08-.21.12-.33.14-.18.03-.33,0-.46-.11-.13-.1-.2-.23-.23-.39-.01-.08-.01-.14,0-.18l1.52-11.38c.04-.27.16-.49.35-.68.19-.18.42-.29.68-.33.36-.05.66.03.9.24.25.22.39.47.44.77,0,.06.02.15.03.27,0,.12,0,.18-.05.19l-.84,3.41c.38-.68.78-1.36,1.19-2.02.41-.66.85-1.26,1.32-1.8.46-.54.94-.98,1.43-1.33.49-.35,1-.56,1.51-.64.6-.09,1.05,0,1.34.26.29.27.47.66.55,1.18.1.67.06,1.49-.12,2.45-.18.96-.4,1.91-.66,2.86-.25.95-.48,1.83-.69,2.64-.21.81-.28,1.39-.23,1.75.04.26.17.37.39.33.36-.05.73-.33,1.12-.82.39-.5.76-1.05,1.11-1.67.35-.62.65-1.21.91-1.76.26-.56.42-.93.49-1.12.1-.24.27-.38.48-.41.16-.02.3,0,.44.08.13.08.21.21.24.39.02.12,0,.25-.06.41-.1.26-.3.71-.58,1.35-.29.64-.64,1.3-1.06,1.97-.42.67-.88,1.29-1.39,1.84-.5.55-1.01.87-1.52.95-.71.11-1.27,0-1.66-.35-.4-.34-.64-.8-.73-1.38-.13-.87-.1-1.82.11-2.84.21-1.02.46-2,.75-2.92.29-.92.57-1.74.82-2.43s.37-1.16.33-1.4c-.02-.12-.09-.17-.21-.15Z"/>
    <path class="cls-1" d="m372.55,59.86c-.61.09-1.12-.09-1.54-.55-.42-.46-.7-1.16-.84-2.09-.09-.61-.12-1.4-.08-2.37s.1-1.93.2-2.88.19-1.81.31-2.55c.12-.75.2-1.21.25-1.41.07-.23.18-.42.35-.56.17-.14.36-.22.58-.26.32-.05.62,0,.9.15.29.15.45.38.5.7,0,.06.02.12.03.19.01.07,0,.14-.03.2-.09.44-.25,1.04-.45,1.82-.21.77-.4,1.59-.58,2.46-.18.87-.32,1.74-.43,2.6-.11.87-.12,1.61-.02,2.22.12.81.35,1.19.66,1.14.36-.05.73-.33,1.12-.82.39-.5.76-1.05,1.11-1.67.35-.62.65-1.21.91-1.77.26-.56.42-.93.5-1.12.1-.24.27-.38.48-.41.16-.03.3,0,.44.08s.21.21.24.39c.02.12,0,.25-.06.4-.1.26-.3.71-.58,1.35-.29.64-.64,1.3-1.06,1.97-.42.67-.88,1.28-1.39,1.84-.5.55-1.01.87-1.52.95Zm-1.21-16.14c-.05-.36.02-.68.23-.98.21-.29.49-.47.84-.52.36-.05.68.03.98.24.3.22.47.5.53.86.05.36-.03.68-.25.96s-.51.46-.86.51-.68-.02-.96-.23-.46-.49-.51-.85Z"/>
    <path class="cls-1" d="m378.8,58.9c-.65.1-1.24-.07-1.75-.52-.51-.45-.84-1.13-.99-2.06-.09-.61-.12-1.4-.08-2.37s.11-1.93.21-2.89c.1-.96.2-1.81.3-2.55.11-.74.19-1.21.24-1.4.06-.23.18-.42.35-.56.17-.14.37-.22.58-.26.31-.05.62,0,.9.15.29.15.45.38.5.7,0,.06.02.12.03.19.01.07,0,.13-.03.2-.09.44-.24,1.04-.45,1.81-.21.77-.4,1.59-.58,2.46-.18.87-.32,1.73-.43,2.6s-.12,1.61-.02,2.22c.06.4.19.68.39.87.2.18.4.26.6.23.63-.1,1.31-.42,2.02-.96.71-.55,1.36-1.24,1.94-2.08.58-.84,1.03-1.76,1.35-2.77s.4-2.04.24-3.09c-.09-.57-.24-1.08-.46-1.51-.22-.43-.5-.62-.83-.57-.61.09-1.07.04-1.38-.17-.3-.21-.48-.46-.53-.75-.05-.32.03-.62.24-.92.21-.29.53-.48.96-.54.47-.07.91-.02,1.3.16s.73.45,1.02.78c.29.34.52.72.71,1.15.19.43.31.86.38,1.29.19,1.21.1,2.44-.26,3.7s-.88,2.42-1.54,3.49-1.44,1.96-2.33,2.68c-.89.72-1.76,1.15-2.61,1.28Z"/>
    <path class="cls-1" d="m386.84,53.53c-.14-.93-.09-1.92.15-2.98s.62-2.05,1.13-2.97c.52-.92,1.15-1.71,1.9-2.37.75-.66,1.56-1.06,2.43-1.19.71-.11,1.24,0,1.57.35.34.34.54.77.62,1.29.1.63.02,1.36-.23,2.17-.25.82-.61,1.6-1.08,2.35-.47.75-1.03,1.4-1.67,1.96-.64.55-1.31.89-2,.99-.12.02-.23.04-.34.05-.11.02-.21.01-.32-.01,0,.35,0,.64.04.87.11.69.37,1.16.79,1.41.42.25.98.32,1.67.21.55-.09,1.09-.33,1.62-.74.52-.4,1.01-.88,1.45-1.44.44-.55.83-1.13,1.16-1.74.33-.61.6-1.15.81-1.63.1-.24.27-.38.48-.41.16-.02.3,0,.44.08.13.08.21.21.24.39.02.12,0,.25-.06.41-.16.43-.4.97-.72,1.63-.32.66-.74,1.31-1.24,1.97-.51.65-1.1,1.24-1.79,1.76-.69.52-1.48.85-2.37.99-1.21.19-2.24-.02-3.1-.62-.86-.6-1.39-1.53-1.58-2.79Zm5.94-8.35c-.42.06-.82.32-1.22.78-.4.46-.76,1.01-1.09,1.67-.33.66-.62,1.38-.87,2.15-.25.78-.41,1.52-.51,2.22l.27-.04c.59-.09,1.15-.38,1.67-.88.52-.49.97-1.07,1.36-1.71.39-.65.68-1.29.87-1.94.19-.65.26-1.18.19-1.59-.03-.22-.09-.39-.17-.52-.08-.13-.25-.17-.51-.13Z"/>
    <path class="cls-1" d="m397.32,44.12c.04-.27.16-.49.35-.68.2-.18.42-.29.68-.33.36-.05.66.03.9.24s.39.47.44.77c0,.06.02.15.03.27,0,.12,0,.18-.05.19l-.63,2.62c.33-.62.69-1.21,1.08-1.77.39-.57.8-1.07,1.24-1.53.44-.45.9-.83,1.39-1.12.49-.3,1-.49,1.54-.57.77-.12,1.36-.01,1.76.32.41.33.66.79.76,1.37.1.58.07,1.23-.08,1.94-.15.71-.39,1.39-.72,2.04-.33.65-.71,1.2-1.16,1.67s-.91.73-1.41.81-.86.03-1.1-.15c-.24-.17-.38-.38-.41-.62-.04-.24.01-.47.15-.69s.34-.36.62-.4c.32-.05.64-.22.97-.51.33-.29.63-.64.92-1.04.28-.4.52-.82.72-1.26.19-.44.3-.85.33-1.2.03-.36-.05-.65-.22-.86-.17-.21-.49-.29-.94-.22-.67.1-1.32.46-1.93,1.06-.62.6-1.19,1.33-1.71,2.19-.52.86-1,1.78-1.44,2.77-.44.99-.82,1.92-1.15,2.8-.33.88-.6,1.64-.8,2.29-.2.65-.34,1.06-.42,1.23-.06.25-.22.4-.48.44h-.09c-.16.04-.3.01-.42-.06-.12-.07-.2-.19-.22-.35-.01-.08-.01-.14,0-.18,0-.02,0-.03,0-.05,0-.01.01-.03,0-.05l1.5-11.37Z"/>
    <path class="cls-1" d="m410.46,40.6c-.39-.14-.57-.36-.54-.65.03-.29.27-.46.72-.54.55-.09,1.16,0,1.83.25s1.31.65,1.93,1.19c.62.54,1.16,1.22,1.63,2.04.47.82.79,1.76.95,2.83.13.87.11,1.75-.08,2.64-.19.89-.5,1.72-.95,2.48-.45.77-1.01,1.42-1.7,1.95-.69.53-1.46.86-2.31.99-.95.15-1.7.1-2.25-.14s-.96-.55-1.22-.93c-.26-.38-.41-.78-.44-1.18-.03-.4,0-.7.12-.9.08-.13.2-.24.36-.33.16-.08.31-.13.45-.13.14,0,.25.05.33.16.08.11.08.29.02.54-.09.32-.09.59,0,.83.1.24.25.43.46.58.21.15.45.25.73.3.28.05.57.05.87,0,.49-.08.97-.3,1.41-.67.45-.37.83-.86,1.14-1.45.31-.59.54-1.27.67-2.03.14-.76.14-1.57,0-2.44-.09-.59-.23-1.12-.41-1.59-.18-.47-.4-.89-.63-1.25-.24-.37-.49-.69-.75-.96-.27-.27-.52-.51-.78-.71l-3.23,7.39c-.09.2-.21.31-.35.36s-.29.04-.43-.03c-.14-.06-.25-.16-.32-.31-.07-.15-.07-.31,0-.49.05-.09.15-.31.29-.65.15-.35.33-.76.55-1.25.22-.49.46-1.02.71-1.58.26-.57.51-1.11.75-1.63.24-.53.46-1,.64-1.44.19-.43.33-.76.44-.98-.13-.08-.25-.14-.36-.17-.11-.03-.19-.07-.26-.1Z"/>
    <path class="cls-1" d="m420.58,52.46c-.61.09-1.12-.09-1.54-.55-.42-.46-.7-1.16-.84-2.09-.09-.61-.12-1.4-.08-2.37s.1-1.93.2-2.88c.09-.96.19-1.81.31-2.55.12-.75.2-1.21.25-1.4.07-.23.18-.42.35-.56.17-.14.36-.22.58-.26.32-.05.62,0,.9.15.29.15.45.38.5.7,0,.06.02.12.03.19s0,.14-.03.2c-.09.44-.24,1.04-.45,1.81-.21.77-.4,1.59-.58,2.46-.18.87-.32,1.74-.43,2.6-.11.87-.12,1.61-.02,2.22.12.81.35,1.19.66,1.14.36-.05.73-.33,1.12-.82.39-.5.76-1.05,1.11-1.67s.65-1.21.91-1.76c.26-.56.42-.93.5-1.12.1-.24.27-.38.48-.41.16-.02.3,0,.44.08s.21.21.24.39c.02.12,0,.25-.06.41-.1.26-.3.71-.58,1.35-.29.64-.64,1.3-1.06,1.97-.42.67-.88,1.29-1.39,1.84-.5.55-1.01.87-1.52.95Zm-1.21-16.14c-.05-.36.02-.68.23-.98.21-.29.49-.47.84-.52.36-.06.68.03.98.24.3.22.47.5.53.86.05.36-.03.68-.25.96-.22.29-.51.46-.86.51-.36.05-.68-.02-.96-.23s-.46-.49-.51-.85Z"/>
    <path class="cls-1" d="m426.36,51.57c-.61.09-1.12-.09-1.51-.56-.39-.46-.67-1.16-.81-2.09-.09-.57-.1-1.38-.03-2.44.07-1.05.19-2.21.36-3.46.17-1.25.37-2.54.59-3.87.22-1.33.43-2.56.65-3.68l-2.52.39c-.22.03-.38,0-.5-.11-.12-.1-.19-.23-.21-.38-.02-.15,0-.29.08-.44.08-.14.23-.23.44-.27l2.94-.45c.17-.9.31-1.64.45-2.22.13-.59.21-.93.23-1.04.07-.23.18-.42.36-.56.17-.14.36-.22.58-.26.32-.05.62,0,.9.15.29.15.45.38.5.7,0,.06.02.12.03.19,0,.07,0,.14-.03.2l-.62,2.46,4.33-.67c.2-.03.36,0,.49.12.13.11.2.24.23.39.02.15-.01.29-.1.43s-.23.22-.43.25l-4.83.75c-.29,1.12-.6,2.36-.93,3.74-.32,1.37-.62,2.73-.88,4.05-.26,1.33-.46,2.55-.6,3.67-.14,1.12-.16,2.01-.06,2.66.06.4.16.69.29.88.13.19.27.28.43.25.36-.05.73-.33,1.12-.82.39-.49.76-1.05,1.11-1.67.35-.62.65-1.21.91-1.76.26-.56.42-.93.49-1.12.1-.24.27-.38.48-.41.16-.03.3,0,.44.08s.21.21.24.39c.02.12,0,.25-.06.4-.1.26-.3.71-.58,1.35-.29.64-.64,1.3-1.06,1.97-.42.67-.88,1.28-1.39,1.84-.5.55-1.01.87-1.52.95Z"/>
    <path class="cls-1" d="m432.58,50.55c-.65.1-1.23-.06-1.74-.49-.51-.43-.84-1.11-.98-2.04-.09-.61-.12-1.4-.08-2.37.04-.97.11-1.93.21-2.89s.2-1.81.3-2.55.19-1.21.24-1.4c.07-.23.18-.42.35-.56.17-.14.37-.22.58-.26.32-.05.62,0,.9.15.29.15.45.38.5.7,0,.06.02.12.03.19.01.07,0,.14-.03.2-.09.44-.24,1.04-.45,1.81-.21.77-.4,1.59-.58,2.46s-.33,1.73-.43,2.6c-.11.87-.12,1.61-.02,2.22.06.4.19.68.39.84.2.16.39.23.59.2.51-.08.97-.38,1.38-.91.4-.53.76-1.17,1.07-1.94.31-.76.57-1.59.8-2.49.23-.89.42-1.74.58-2.55.16-.8.29-1.5.39-2.1.1-.59.18-.98.23-1.17-.01-.34.08-.61.28-.82.2-.2.44-.33.72-.37.3-.05.58.01.86.17s.45.44.51.83c-.02,0-.03.21-.04.63,0,.42-.03.96-.06,1.65-.04.68-.09,1.48-.15,2.4s-.14,1.88-.24,2.88c-.1,1.01-.23,2.04-.39,3.09s-.36,2.07-.59,3.03c.43.18.83.4,1.21.68s.7.56.98.86c.28.3.5.6.67.9s.27.56.31.8c.03.22,0,.38-.1.5-.1.12-.23.19-.39.21-.16.02-.3.01-.43-.04-.13-.05-.21-.15-.23-.28-.02-.14-.09-.32-.21-.54-.12-.23-.27-.46-.46-.7-.19-.24-.42-.48-.7-.71s-.59-.42-.94-.57c-.38,1.35-.85,2.5-1.43,3.45s-1.26,1.48-2.07,1.61c-.75.12-1.32-.01-1.71-.39s-.63-.85-.72-1.42c-.07-.43-.03-.91.12-1.42.14-.51.38-.99.7-1.44.33-.45.72-.84,1.2-1.17.48-.33,1.02-.54,1.63-.63.16-.02.32-.04.49-.04.17,0,.34,0,.5.01.17-1.1.31-2.25.42-3.46.11-1.21.18-2.38.23-3.53-.19.74-.41,1.46-.67,2.15-.26.7-.55,1.33-.89,1.9s-.72,1.04-1.16,1.42c-.44.38-.93.62-1.49.7Zm1.18,6.1c.51-.08.95-.5,1.29-1.25.35-.76.64-1.71.86-2.88-.08,0-.16,0-.24,0-.08.01-.17.03-.27.04-.49.08-.92.24-1.29.48s-.67.53-.9.86c-.23.33-.4.66-.5,1.01-.1.35-.13.66-.08.93.04.27.16.49.34.64s.45.2.78.15Z"/>
  </g>
  <path class="cls-1" d="m270.95,56.54c0-1.71-.32-2.41-.73-3.33-.22-.51-4.47-7.49-5.58-9.14-.79-1.17-1.59-1.97-2.16-2.35-.48-.32-1.08-.51-1.36-.51-.16,0-.32-.06-.32-.22,0-.13.13-.22.41-.22.6,0,2.98.1,3.14.1.22,0,1.43-.1,2.67-.1.35,0,.41.1.41.22s-.19.16-.48.29c-.25.13-.41.32-.41.57,0,.38.16.76.41,1.24.51.92,5.27,9.1,5.84,10.02.6-1.33,4.63-8.28,5.27-9.33.41-.67.54-1.21.54-1.62,0-.44-.13-.79-.51-.89-.29-.09-.48-.16-.48-.32,0-.13.19-.19.51-.19.82,0,1.84.1,2.09.1.19,0,2.47-.1,3.08-.1.22,0,.41.06.41.19,0,.16-.16.25-.41.25-.35,0-.95.13-1.46.44-.63.38-.98.76-1.68,1.62-1.05,1.27-5.49,8.72-6.06,10.09-.48,1.14-.48,2.12-.48,3.17v2.73c0,.51,0,1.84.1,3.17.06.92.35,1.62,1.3,1.75.44.06,1.14.13,1.43.13.19,0,.25.09.25.19,0,.16-.16.25-.51.25-1.74,0-3.74-.09-3.9-.09s-2.16.09-3.11.09c-.35,0-.51-.06-.51-.25,0-.1.06-.19.25-.19.29,0,.67-.06.95-.13.63-.13.92-.83.98-1.75.1-1.33.1-2.67.1-3.17v-2.73Z"/>
</svg>